<svg xmlns="http://www.w3.org/2000/svg" width="14.086" height="15.1" viewBox="0 0 14.086 15.1"><defs><style>.a{fill:#0f276a;stroke:#fff;stroke-width:0.6px;}</style></defs><g transform="translate(22.3 0.3)"><g transform="translate(-22 0)"><path class="a" d="M13.852,3.66h-.859V3.1a.579.579,0,0,0-.558-.6.569.569,0,0,0-.558.6V3.66H7.41V3.1a.579.579,0,0,0-.558-.6.569.569,0,0,0-.558.6V3.66H5.434A2.617,2.617,0,0,0,2.9,6.362V14.3A2.627,2.627,0,0,0,5.434,17h8.418a2.617,2.617,0,0,0,2.534-2.7V6.362A2.627,2.627,0,0,0,13.852,3.66ZM5.434,4.835h.859V5.4a.579.579,0,0,0,.558.6.569.569,0,0,0,.558-.6V4.835h4.467V5.4a.579.579,0,0,0,.558.6.569.569,0,0,0,.558-.6V4.835h.859A1.474,1.474,0,0,1,15.27,6.362V7.14H4.017V6.362A1.474,1.474,0,0,1,5.434,4.835ZM13.852,15.81H5.434A1.486,1.486,0,0,1,4,14.283V8.315H15.27v5.968A1.465,1.465,0,0,1,13.852,15.81Z" transform="translate(-2.9 -2.5)"/><path class="a" d="M21.4,49.7h-.616a.841.841,0,0,0,0,1.679H21.4a.813.813,0,0,0,.787-.839A.8.8,0,0,0,21.4,49.7Z" transform="translate(-17.552 -42.496)"/><path class="a" d="M43.8,49.7h-.616a.841.841,0,0,0,0,1.679H43.8a.813.813,0,0,0,.787-.839A.822.822,0,0,0,43.8,49.7Z" transform="translate(-36.745 -42.496)"/><path class="a" d="M66.1,49.7h-.616a.841.841,0,0,0,0,1.679H66.1a.813.813,0,0,0,.787-.839A.8.8,0,0,0,66.1,49.7Z" transform="translate(-55.852 -42.496)"/><path class="a" d="M21.4,69.4h-.616a.841.841,0,0,0,0,1.679H21.4a.813.813,0,0,0,.787-.839A.8.8,0,0,0,21.4,69.4Z" transform="translate(-17.552 -59.189)"/><path class="a" d="M43.8,69.4h-.616a.841.841,0,0,0,0,1.679H43.8a.813.813,0,0,0,.787-.839A.822.822,0,0,0,43.8,69.4Z" transform="translate(-36.745 -59.189)"/><path class="a" d="M66.1,69.4h-.616a.841.841,0,0,0,0,1.679H66.1a.813.813,0,0,0,.787-.839A.8.8,0,0,0,66.1,69.4Z" transform="translate(-55.852 -59.189)"/></g></g></svg>